<svg width="122" height="30" viewBox="0 0 122 30" fill="none" xmlns="http://www.w3.org/2000/svg">

<g clip-path="url(#clip0_0_1)">
<mask id="path-1-outside-1_0_1" maskUnits="userSpaceOnUse" x="0" y="0" width="122" height="29" fill="black">
<rect fill="white" width="122" height="29"/>
<path d="M12.7101 1.40625V27H7.59484V1.40625H12.7101ZM19.0734 1.40625V5.67773H1.35461V1.40625H19.0734ZM62.542 20.2676C62.542 19.8105 62.5009 19.3945 62.4189 19.0195C62.3369 18.6445 62.1611 18.2988 61.8916 17.9824C61.6338 17.666 61.2529 17.3496 60.749 17.0332C60.2568 16.7168 59.6123 16.3887 58.8154 16.0488C57.8662 15.6504 56.9463 15.2285 56.0556 14.7832C55.165 14.3262 54.3623 13.7988 53.6474 13.2012C52.9326 12.6035 52.3642 11.9004 51.9423 11.0918C51.5322 10.2715 51.3271 9.31055 51.3271 8.20898C51.3271 7.13086 51.5205 6.15234 51.9072 5.27344C52.3056 4.39453 52.8681 3.64453 53.5947 3.02344C54.3213 2.39062 55.1709 1.9043 56.1435 1.56445C57.1279 1.22461 58.2236 1.05469 59.4306 1.05469C61.0713 1.05469 62.4892 1.39453 63.6845 2.07422C64.8916 2.75391 65.8232 3.68555 66.4795 4.86914C67.1474 6.05273 67.4814 7.41211 67.4814 8.94727H62.3486C62.3486 8.2207 62.2431 7.58203 62.0322 7.03125C61.833 6.46875 61.5107 6.0293 61.0654 5.71289C60.6201 5.39648 60.0459 5.23828 59.3427 5.23828C58.6865 5.23828 58.1416 5.37305 57.708 5.64258C57.2861 5.90039 56.9697 6.25781 56.7588 6.71484C56.5595 7.16016 56.4599 7.66406 56.4599 8.22656C56.4599 8.64844 56.5595 9.0293 56.7588 9.36914C56.9697 9.69727 57.2568 9.99609 57.6201 10.2656C57.9834 10.5234 58.4111 10.7754 58.9033 11.0215C59.4072 11.2676 59.958 11.5078 60.5556 11.7422C61.7158 12.1992 62.7412 12.7031 63.6318 13.2539C64.5224 13.793 65.2666 14.4023 65.8642 15.082C66.4619 15.75 66.913 16.5059 67.2177 17.3496C67.5224 18.1934 67.6748 19.1543 67.6748 20.2324C67.6748 21.2988 67.4873 22.2715 67.1123 23.1504C66.749 24.0176 66.2158 24.7676 65.5127 25.4004C64.8095 26.0215 63.9599 26.502 62.9638 26.8418C61.9795 27.1816 60.8779 27.3516 59.6591 27.3516C58.4755 27.3516 57.3564 27.1875 56.3017 26.8594C55.247 26.5195 54.3154 26.0098 53.5068 25.3301C52.7099 24.6387 52.083 23.7656 51.6259 22.7109C51.1689 21.6445 50.9404 20.3848 50.9404 18.9316H56.0908C56.0908 19.7051 56.167 20.3672 56.3193 20.918C56.4716 21.457 56.706 21.8906 57.0224 22.2188C57.3388 22.5352 57.7255 22.7754 58.1826 22.9395C58.6513 23.0918 59.1845 23.168 59.7822 23.168C60.4619 23.168 61.0009 23.0391 61.3994 22.7812C61.8095 22.5234 62.1025 22.1777 62.2783 21.7441C62.4541 21.3105 62.542 20.8184 62.542 20.2676ZM92.5141 1.40625H100.723C102.434 1.40625 103.893 1.69922 105.1 2.28516C106.307 2.87109 107.233 3.73828 107.877 4.88672C108.522 6.03516 108.844 7.45312 108.844 9.14062C108.844 10.5234 108.657 11.707 108.282 12.6914C107.907 13.6641 107.373 14.4785 106.682 15.1348C105.991 15.7793 105.164 16.2949 104.204 16.6816L102.639 17.6133H95.977L95.9594 13.3418H100.582C101.286 13.3418 101.866 13.1895 102.323 12.8848C102.791 12.5684 103.137 12.1289 103.36 11.5664C103.594 10.9922 103.711 10.3242 103.711 9.5625C103.711 8.75391 103.606 8.0625 103.395 7.48828C103.196 6.90234 102.873 6.45703 102.428 6.15234C101.995 5.83594 101.426 5.67773 100.723 5.67773H97.6645V27H92.5141V1.40625ZM104.133 27L99.4398 15.5918L104.836 15.5742L109.635 26.7539V27H104.133Z"/>
<path d="M33.0719 12.2168V16.4883C33.0719 18.293 32.8492 19.875 32.4039 21.2344C31.9703 22.582 31.3492 23.7129 30.5406 24.627C29.7438 25.5293 28.777 26.209 27.6402 26.666C26.5152 27.123 25.2672 27.3516 23.8961 27.3516C22.525 27.3516 21.2711 27.123 20.1344 26.666C19.0094 26.209 18.0367 25.5293 17.2164 24.627C16.4078 23.7129 15.7809 22.582 15.3355 21.2344C14.8902 19.875 14.6676 18.293 14.6676 16.4883V12.2168C14.6676 10.3652 14.8844 8.74805 15.318 7.36523C15.7516 5.9707 16.3785 4.81055 17.1988 3.88477C18.0191 2.94727 18.9918 2.24414 20.1168 1.77539C21.2418 1.29492 22.4898 1.05469 23.8609 1.05469C25.232 1.05469 26.4801 1.29492 27.6051 1.77539C28.7301 2.24414 29.7027 2.94727 30.523 3.88477C31.3434 4.81055 31.9703 5.9707 32.4039 7.36523C32.8492 8.74805 33.0719 10.3652 33.0719 12.2168ZM27.9566 16.4883V12.1816C27.9566 10.9629 27.8688 9.92578 27.693 9.07031C27.5172 8.20313 27.2535 7.49414 26.902 6.94336C26.5504 6.39258 26.1227 5.98828 25.6188 5.73047C25.1148 5.47266 24.5289 5.34375 23.8609 5.34375C23.193 5.34375 22.6012 5.47266 22.0855 5.73047C21.5816 5.98828 21.1539 6.39258 20.8023 6.94336C20.4625 7.49414 20.2047 8.20313 20.0289 9.07031C19.8648 9.92578 19.7828 10.9629 19.7828 12.1816V16.4883C19.7828 17.6602 19.8707 18.6621 20.0465 19.4941C20.2223 20.3262 20.4859 21.0059 20.8375 21.5332C21.1891 22.0605 21.6168 22.4531 22.1207 22.7109C22.6363 22.957 23.2281 23.0801 23.8961 23.0801C24.5523 23.0801 25.1324 22.957 25.6363 22.7109C26.152 22.4531 26.5797 22.0605 26.9195 21.5332C27.2594 21.0059 27.5172 20.3262 27.693 19.4941C27.8688 18.6621 27.9566 17.6602 27.9566 16.4883ZM74.8705 1.40625V27H69.7553V1.40625H74.8705ZM81.2338 1.40625V5.67773H63.5151V1.40625H81.2338ZM120.628 22.7461V27H109.501V22.7461H120.628ZM111.1 1.40625V27H105.95V1.40625H111.1ZM119.134 11.7773V15.9082H109.501V11.7773H119.134ZM120.593 1.40625V5.67773H109.501V1.40625H120.593Z"/>
<path d="M33.3595 1.40625L37.2618 12.9375L41.129 1.40625H46.7364L39.8458 17.7012V27H34.6602V17.7012L27.7696 1.40625H33.3595ZM95.2323 12.2168V16.4883C95.2323 18.293 95.0097 19.875 94.5644 21.2344C94.1308 22.582 93.5097 23.7129 92.7011 24.627C91.9042 25.5293 90.9374 26.209 89.8007 26.666C88.6757 27.123 87.4277 27.3516 86.0566 27.3516C84.6855 27.3516 83.4316 27.123 82.2948 26.666C81.1698 26.209 80.1972 25.5293 79.3769 24.627C78.5683 23.7129 77.9413 22.582 77.496 21.2344C77.0507 19.875 76.828 18.293 76.828 16.4883V12.2168C76.828 10.3652 77.0448 8.74805 77.4784 7.36523C77.912 5.9707 78.539 4.81055 79.3593 3.88477C80.1796 2.94727 81.1523 2.24414 82.2773 1.77539C83.4023 1.29492 84.6503 1.05469 86.0214 1.05469C87.3925 1.05469 88.6405 1.29492 89.7655 1.77539C90.8905 2.24414 91.8632 2.94727 92.6835 3.88477C93.5038 4.81055 94.1308 5.9707 94.5644 7.36523C95.0097 8.74805 95.2323 10.3652 95.2323 12.2168ZM90.1171 16.4883V12.1816C90.1171 10.9629 90.0292 9.92578 89.8534 9.07031C89.6777 8.20313 89.414 7.49414 89.0624 6.94336C88.7109 6.39258 88.2831 5.98828 87.7792 5.73047C87.2753 5.47266 86.6894 5.34375 86.0214 5.34375C85.3534 5.34375 84.7616 5.47266 84.246 5.73047C83.7421 5.98828 83.3144 6.39258 82.9628 6.94336C82.623 7.49414 82.3652 8.20313 82.1894 9.07031C82.0253 9.92578 81.9433 10.9629 81.9433 12.1816V16.4883C81.9433 17.6602 82.0312 18.6621 82.207 19.4941C82.3827 20.3262 82.6464 21.0059 82.998 21.5332C83.3495 22.0605 83.7773 22.4531 84.2812 22.7109C84.7968 22.957 85.3886 23.0801 86.0566 23.0801C86.7128 23.0801 87.2929 22.957 87.7968 22.7109C88.3124 22.4531 88.7402 22.0605 89.08 21.5332C89.4198 21.0059 89.6777 20.3262 89.8534 19.4941C90.0292 18.6621 90.1171 17.6602 90.1171 16.4883Z"/>
</mask>
<path d="M12.7101 1.40625V27H7.59484V1.40625H12.7101ZM19.0734 1.40625V5.67773H1.35461V1.40625H19.0734ZM62.542 20.2676C62.542 19.8105 62.5009 19.3945 62.4189 19.0195C62.3369 18.6445 62.1611 18.2988 61.8916 17.9824C61.6338 17.666 61.2529 17.3496 60.749 17.0332C60.2568 16.7168 59.6123 16.3887 58.8154 16.0488C57.8662 15.6504 56.9463 15.2285 56.0556 14.7832C55.165 14.3262 54.3623 13.7988 53.6474 13.2012C52.9326 12.6035 52.3642 11.9004 51.9423 11.0918C51.5322 10.2715 51.3271 9.31055 51.3271 8.20898C51.3271 7.13086 51.5205 6.15234 51.9072 5.27344C52.3056 4.39453 52.8681 3.64453 53.5947 3.02344C54.3213 2.39062 55.1709 1.9043 56.1435 1.56445C57.1279 1.22461 58.2236 1.05469 59.4306 1.05469C61.0713 1.05469 62.4892 1.39453 63.6845 2.07422C64.8916 2.75391 65.8232 3.68555 66.4795 4.86914C67.1474 6.05273 67.4814 7.41211 67.4814 8.94727H62.3486C62.3486 8.2207 62.2431 7.58203 62.0322 7.03125C61.833 6.46875 61.5107 6.0293 61.0654 5.71289C60.6201 5.39648 60.0459 5.23828 59.3427 5.23828C58.6865 5.23828 58.1416 5.37305 57.708 5.64258C57.2861 5.90039 56.9697 6.25781 56.7588 6.71484C56.5595 7.16016 56.4599 7.66406 56.4599 8.22656C56.4599 8.64844 56.5595 9.0293 56.7588 9.36914C56.9697 9.69727 57.2568 9.99609 57.6201 10.2656C57.9834 10.5234 58.4111 10.7754 58.9033 11.0215C59.4072 11.2676 59.958 11.5078 60.5556 11.7422C61.7158 12.1992 62.7412 12.7031 63.6318 13.2539C64.5224 13.793 65.2666 14.4023 65.8642 15.082C66.4619 15.75 66.913 16.5059 67.2177 17.3496C67.5224 18.1934 67.6748 19.1543 67.6748 20.2324C67.6748 21.2988 67.4873 22.2715 67.1123 23.1504C66.749 24.0176 66.2158 24.7676 65.5127 25.4004C64.8095 26.0215 63.9599 26.502 62.9638 26.8418C61.9795 27.1816 60.8779 27.3516 59.6591 27.3516C58.4755 27.3516 57.3564 27.1875 56.3017 26.8594C55.247 26.5195 54.3154 26.0098 53.5068 25.3301C52.7099 24.6387 52.083 23.7656 51.6259 22.7109C51.1689 21.6445 50.9404 20.3848 50.9404 18.9316H56.0908C56.0908 19.7051 56.167 20.3672 56.3193 20.918C56.4716 21.457 56.706 21.8906 57.0224 22.2188C57.3388 22.5352 57.7255 22.7754 58.1826 22.9395C58.6513 23.0918 59.1845 23.168 59.7822 23.168C60.4619 23.168 61.0009 23.0391 61.3994 22.7812C61.8095 22.5234 62.1025 22.1777 62.2783 21.7441C62.4541 21.3105 62.542 20.8184 62.542 20.2676ZM92.5141 1.40625H100.723C102.434 1.40625 103.893 1.69922 105.1 2.28516C106.307 2.87109 107.233 3.73828 107.877 4.88672C108.522 6.03516 108.844 7.45312 108.844 9.14062C108.844 10.5234 108.657 11.707 108.282 12.6914C107.907 13.6641 107.373 14.4785 106.682 15.1348C105.991 15.7793 105.164 16.2949 104.204 16.6816L102.639 17.6133H95.977L95.9594 13.3418H100.582C101.286 13.3418 101.866 13.1895 102.323 12.8848C102.791 12.5684 103.137 12.1289 103.36 11.5664C103.594 10.9922 103.711 10.3242 103.711 9.5625C103.711 8.75391 103.606 8.0625 103.395 7.48828C103.196 6.90234 102.873 6.45703 102.428 6.15234C101.995 5.83594 101.426 5.67773 100.723 5.67773H97.6645V27H92.5141V1.40625ZM104.133 27L99.4398 15.5918L104.836 15.5742L109.635 26.7539V27H104.133Z" fill="#E30020"/>
<path d="M33.0719 12.2168V16.4883C33.0719 18.293 32.8492 19.875 32.4039 21.2344C31.9703 22.582 31.3492 23.7129 30.5406 24.627C29.7438 25.5293 28.777 26.209 27.6402 26.666C26.5152 27.123 25.2672 27.3516 23.8961 27.3516C22.525 27.3516 21.2711 27.123 20.1344 26.666C19.0094 26.209 18.0367 25.5293 17.2164 24.627C16.4078 23.7129 15.7809 22.582 15.3355 21.2344C14.8902 19.875 14.6676 18.293 14.6676 16.4883V12.2168C14.6676 10.3652 14.8844 8.74805 15.318 7.36523C15.7516 5.9707 16.3785 4.81055 17.1988 3.88477C18.0191 2.94727 18.9918 2.24414 20.1168 1.77539C21.2418 1.29492 22.4898 1.05469 23.8609 1.05469C25.232 1.05469 26.4801 1.29492 27.6051 1.77539C28.7301 2.24414 29.7027 2.94727 30.523 3.88477C31.3434 4.81055 31.9703 5.9707 32.4039 7.36523C32.8492 8.74805 33.0719 10.3652 33.0719 12.2168ZM27.9566 16.4883V12.1816C27.9566 10.9629 27.8688 9.92578 27.693 9.07031C27.5172 8.20313 27.2535 7.49414 26.902 6.94336C26.5504 6.39258 26.1227 5.98828 25.6188 5.73047C25.1148 5.47266 24.5289 5.34375 23.8609 5.34375C23.193 5.34375 22.6012 5.47266 22.0855 5.73047C21.5816 5.98828 21.1539 6.39258 20.8023 6.94336C20.4625 7.49414 20.2047 8.20313 20.0289 9.07031C19.8648 9.92578 19.7828 10.9629 19.7828 12.1816V16.4883C19.7828 17.6602 19.8707 18.6621 20.0465 19.4941C20.2223 20.3262 20.4859 21.0059 20.8375 21.5332C21.1891 22.0605 21.6168 22.4531 22.1207 22.7109C22.6363 22.957 23.2281 23.0801 23.8961 23.0801C24.5523 23.0801 25.1324 22.957 25.6363 22.7109C26.152 22.4531 26.5797 22.0605 26.9195 21.5332C27.2594 21.0059 27.5172 20.3262 27.693 19.4941C27.8688 18.6621 27.9566 17.6602 27.9566 16.4883ZM74.8705 1.40625V27H69.7553V1.40625H74.8705ZM81.2338 1.40625V5.67773H63.5151V1.40625H81.2338ZM120.628 22.7461V27H109.501V22.7461H120.628ZM111.1 1.40625V27H105.95V1.40625H111.1ZM119.134 11.7773V15.9082H109.501V11.7773H119.134ZM120.593 1.40625V5.67773H109.501V1.40625H120.593Z" fill="#FFDB01"/>
<path d="M33.3595 1.40625L37.2618 12.9375L41.129 1.40625H46.7364L39.8458 17.7012V27H34.6602V17.7012L27.7696 1.40625H33.3595ZM95.2323 12.2168V16.4883C95.2323 18.293 95.0097 19.875 94.5644 21.2344C94.1308 22.582 93.5097 23.7129 92.7011 24.627C91.9042 25.5293 90.9374 26.209 89.8007 26.666C88.6757 27.123 87.4277 27.3516 86.0566 27.3516C84.6855 27.3516 83.4316 27.123 82.2948 26.666C81.1698 26.209 80.1972 25.5293 79.3769 24.627C78.5683 23.7129 77.9413 22.582 77.496 21.2344C77.0507 19.875 76.828 18.293 76.828 16.4883V12.2168C76.828 10.3652 77.0448 8.74805 77.4784 7.36523C77.912 5.9707 78.539 4.81055 79.3593 3.88477C80.1796 2.94727 81.1523 2.24414 82.2773 1.77539C83.4023 1.29492 84.6503 1.05469 86.0214 1.05469C87.3925 1.05469 88.6405 1.29492 89.7655 1.77539C90.8905 2.24414 91.8632 2.94727 92.6835 3.88477C93.5038 4.81055 94.1308 5.9707 94.5644 7.36523C95.0097 8.74805 95.2323 10.3652 95.2323 12.2168ZM90.1171 16.4883V12.1816C90.1171 10.9629 90.0292 9.92578 89.8534 9.07031C89.6777 8.20313 89.414 7.49414 89.0624 6.94336C88.7109 6.39258 88.2831 5.98828 87.7792 5.73047C87.2753 5.47266 86.6894 5.34375 86.0214 5.34375C85.3534 5.34375 84.7616 5.47266 84.246 5.73047C83.7421 5.98828 83.3144 6.39258 82.9628 6.94336C82.623 7.49414 82.3652 8.20313 82.1894 9.07031C82.0253 9.92578 81.9433 10.9629 81.9433 12.1816V16.4883C81.9433 17.6602 82.0312 18.6621 82.207 19.4941C82.3827 20.3262 82.6464 21.0059 82.998 21.5332C83.3495 22.0605 83.7773 22.4531 84.2812 22.7109C84.7968 22.957 85.3886 23.0801 86.0566 23.0801C86.7128 23.0801 87.2929 22.957 87.7968 22.7109C88.3124 22.4531 88.7402 22.0605 89.08 21.5332C89.4198 21.0059 89.6777 20.3262 89.8534 19.4941C90.0292 18.6621 90.1171 17.6602 90.1171 16.4883Z" fill="#004D99"/>
<path d="M12.7101 1.40625H13.7101V0.40625H12.7101V1.40625ZM12.7101 27V28H13.7101V27H12.7101ZM7.59484 27H6.59484V28H7.59484V27ZM7.59484 1.40625V0.40625H6.59484V1.40625H7.59484ZM19.0734 1.40625H20.0734V0.40625H19.0734V1.40625ZM19.0734 5.67773V6.67773H20.0734V5.67773H19.0734ZM1.35461 5.67773H0.35461V6.67773H1.35461V5.67773ZM1.35461 1.40625V0.40625H0.35461V1.40625H1.35461ZM11.7101 1.40625V27H13.7101V1.40625H11.7101ZM12.7101 26H7.59484V28H12.7101V26ZM8.59484 27V1.40625H6.59484V27H8.59484ZM7.59484 2.40625H12.7101V0.40625H7.59484V2.40625ZM18.0734 1.40625V5.67773H20.0734V1.40625H18.0734ZM19.0734 4.67773H1.35461V6.67773H19.0734V4.67773ZM2.35461 5.67773V1.40625H0.35461V5.67773H2.35461ZM1.35461 2.40625H19.0734V0.40625H1.35461V2.40625ZM32.4039 21.2344L31.4536 20.9231L31.452 20.9281L32.4039 21.2344ZM30.5406 24.627L29.7916 23.9644L29.7911 23.965L30.5406 24.627ZM27.6402 26.666L27.2672 25.7382L27.2639 25.7395L27.6402 26.666ZM20.1344 26.666L19.758 27.5925L19.7613 27.5938L20.1344 26.666ZM17.2164 24.627L16.4673 25.2896L16.4765 25.2996L17.2164 24.627ZM15.3355 21.2344L14.3852 21.5457L14.386 21.5481L15.3355 21.2344ZM15.318 7.36523L16.2722 7.66443L16.2729 7.66214L15.318 7.36523ZM17.1988 3.88477L17.9473 4.54797L17.9514 4.54327L17.1988 3.88477ZM20.1168 1.77539L20.5014 2.6985L20.5096 2.69503L20.1168 1.77539ZM27.6051 1.77539L27.2123 2.69507L27.2205 2.69847L27.6051 1.77539ZM30.523 3.88477L29.7705 4.54328L29.7746 4.54795L30.523 3.88477ZM32.4039 7.36523L31.449 7.66215L31.452 7.67177L32.4039 7.36523ZM27.693 9.07031L26.7129 9.26898L26.7134 9.27159L27.693 9.07031ZM22.0855 5.73047L21.6383 4.836L21.6301 4.84022L22.0855 5.73047ZM20.8023 6.94336L19.9594 6.40532L19.9553 6.41176L19.9513 6.41825L20.8023 6.94336ZM20.0289 9.07031L19.0488 8.87164L19.0468 8.88196L20.0289 9.07031ZM22.1207 22.7109L21.6652 23.6012L21.6775 23.6075L21.69 23.6134L22.1207 22.7109ZM25.6363 22.7109L26.0752 23.6095L26.0835 23.6054L25.6363 22.7109ZM32.0719 12.2168V16.4883H34.0719V12.2168H32.0719ZM32.0719 16.4883C32.0719 18.2136 31.8587 19.6865 31.4536 20.9231L33.3542 21.5457C33.8398 20.0635 34.0719 18.3723 34.0719 16.4883H32.0719ZM31.452 20.9281C31.054 22.1651 30.4952 23.169 29.7916 23.9644L31.2896 25.2895C32.2032 24.2567 32.8867 22.9989 33.3559 21.5407L31.452 20.9281ZM29.7911 23.965C29.0992 24.7485 28.2621 25.3382 27.2672 25.7382L28.0133 27.5938C29.2918 27.0798 30.3883 26.3101 31.2902 25.2889L29.7911 23.965ZM27.2639 25.7395C26.2729 26.1421 25.1547 26.3516 23.8961 26.3516V28.3516C25.3796 28.3516 26.7576 28.104 28.0166 27.5925L27.2639 25.7395ZM23.8961 26.3516C22.6376 26.3516 21.5122 26.1422 20.5074 25.7382L19.7613 27.5938C21.03 28.1039 22.4124 28.3516 23.8961 28.3516V26.3516ZM20.5108 25.7395C19.525 25.3391 18.6764 24.7464 17.9563 23.9543L16.4765 25.2996C17.397 26.3122 18.4937 27.0789 19.758 27.5925L20.5108 25.7395ZM17.9654 23.9644C17.26 23.167 16.6947 22.1604 16.2851 20.9206L14.386 21.5481C14.867 23.0037 15.5556 24.2588 16.4674 25.2895L17.9654 23.9644ZM16.2859 20.9231C15.8808 19.6865 15.6676 18.2136 15.6676 16.4883H13.6676C13.6676 18.3723 13.8997 20.0635 14.3852 21.5457L16.2859 20.9231ZM15.6676 16.4883V12.2168H13.6676V16.4883H15.6676ZM15.6676 12.2168C15.6676 10.44 15.876 8.92786 16.2722 7.66443L14.3638 7.06604C13.8928 8.56823 13.6676 10.2905 13.6676 12.2168H15.6676ZM16.2729 7.66214C16.6719 6.3788 17.2364 5.35022 17.9473 4.54795L16.4504 3.22158C15.5206 4.27087 14.8312 5.56261 14.3631 7.06833L16.2729 7.66214ZM17.9514 4.54327C18.6732 3.71832 19.5209 3.10702 20.5014 2.69847L19.7322 0.852314C18.4627 1.38127 17.365 2.17621 16.4463 3.22626L17.9514 4.54327ZM20.5096 2.69503C21.4962 2.27364 22.6085 2.05469 23.8609 2.05469V0.0546875C22.3712 0.0546875 20.9874 0.316206 19.724 0.855751L20.5096 2.69503ZM23.8609 2.05469C25.1133 2.05469 26.2256 2.27364 27.2123 2.69503L27.9978 0.855751C26.7345 0.316206 25.3507 0.0546875 23.8609 0.0546875V2.05469ZM27.2205 2.69847C28.201 3.10702 29.0486 3.71832 29.7705 4.54327L31.2756 3.22626C30.3568 2.17621 29.2592 1.38127 27.9897 0.852314L27.2205 2.69847ZM29.7746 4.54795C30.4855 5.35022 31.05 6.3788 31.449 7.66214L33.3588 7.06833C32.8907 5.56261 32.2013 4.27087 31.2715 3.22158L29.7746 4.54795ZM31.452 7.67177C31.8581 8.93265 32.0719 10.4422 32.0719 12.2168H34.0719C34.0719 10.2883 33.8403 8.56344 33.3558 7.0587L31.452 7.67177ZM28.9566 16.4883V12.1816H26.9566V16.4883H28.9566ZM28.9566 12.1816C28.9566 10.9196 28.866 9.81095 28.6725 8.86904L26.7134 9.27159C26.8715 10.0406 26.9566 11.0061 26.9566 12.1816H28.9566ZM28.673 8.87165C28.4809 7.92387 28.1815 7.08942 27.7449 6.40532L26.059 7.48139C26.3255 7.89886 26.5535 8.48238 26.7129 9.26897L28.673 8.87165ZM27.7449 6.40532C27.3127 5.72826 26.7593 5.19073 26.0742 4.84022L25.1633 6.62072C25.486 6.78583 25.7881 7.0569 26.059 7.48139L27.7449 6.40532ZM26.0742 4.84022C25.406 4.49835 24.6589 4.34375 23.8609 4.34375V6.34375C24.399 6.34375 24.8237 6.44696 25.1633 6.62072L26.0742 4.84022ZM23.8609 4.34375C23.0624 4.34375 22.3133 4.49856 21.6383 4.83604L22.5328 6.6249C22.8891 6.44675 23.3236 6.34375 23.8609 6.34375V4.34375ZM21.6301 4.84022C20.945 5.19073 20.3916 5.72826 19.9594 6.40532L21.6453 7.48139C21.9162 7.0569 22.2183 6.78583 22.541 6.62072L21.6301 4.84022ZM19.9513 6.41825C19.5314 7.09878 19.24 7.92843 19.0488 8.87165L21.009 9.26897C21.1693 8.47782 21.3936 7.8895 21.6534 7.46847L19.9513 6.41825ZM19.0468 8.88196C18.8672 9.81857 18.7828 10.9226 18.7828 12.1816H20.7828C20.7828 11.0032 20.8625 10.033 21.011 9.25866L19.0468 8.88196ZM18.7828 12.1816V16.4883H20.7828V12.1816H18.7828ZM18.7828 16.4883C18.7828 17.7056 18.8737 18.7808 19.0681 19.7008L21.0249 19.2874C20.8677 18.5434 20.7828 17.6147 20.7828 16.4883H18.7828ZM19.0681 19.7008C19.2617 20.6171 19.5639 21.4255 20.0055 22.0879L21.6696 20.9785C21.408 20.5862 21.1829 20.0352 21.0249 19.2874L19.0681 19.7008ZM20.0055 22.0879C20.4402 22.7401 20.9916 23.2566 21.6652 23.6012L22.5762 21.8207C22.242 21.6497 21.9379 21.381 21.6696 20.9785L20.0055 22.0879ZM21.69 23.6134C22.361 23.9337 23.1041 24.0801 23.8961 24.0801V22.0801C23.3521 22.0801 22.9116 21.9804 22.5514 21.8085L21.69 23.6134ZM23.8961 24.0801C24.6787 24.0801 25.4132 23.9328 26.0752 23.6095L25.1975 21.8124C24.8517 21.9813 24.426 22.0801 23.8961 22.0801V24.0801ZM26.0835 23.6054C26.7735 23.2604 27.332 22.7392 27.7601 22.0749L26.079 20.9915C25.8274 21.3819 25.5304 21.6459 25.1891 21.8165L26.0835 23.6054ZM27.7601 22.0749C28.1848 21.4159 28.4788 20.6124 28.6714 19.7008L26.7146 19.2874C26.5556 20.04 26.334 20.5958 26.079 20.9915L27.7601 22.0749ZM28.6714 19.7008C28.8657 18.7808 28.9566 17.7056 28.9566 16.4883H26.9566C26.9566 17.6147 26.8718 18.5434 26.7146 19.2874L28.6714 19.7008ZM33.3595 1.40625L34.3067 1.08569L34.0768 0.40625H33.3595V1.40625ZM37.2618 12.9375L36.3146 13.2581L37.2661 16.0697L38.2099 13.2555L37.2618 12.9375ZM41.129 1.40625V0.40625H40.4096L40.1809 1.08829L41.129 1.40625ZM46.7364 1.40625L47.6574 1.79573L48.245 0.40625H46.7364V1.40625ZM39.8458 17.7012L38.9247 17.3117L38.8458 17.4984V17.7012H39.8458ZM39.8458 27V28H40.8458V27H39.8458ZM34.6602 27H33.6602V28H34.6602V27ZM34.6602 17.7012H35.6602V17.4984L35.5813 17.3117L34.6602 17.7012ZM27.7696 1.40625V0.40625H26.261L26.8486 1.79573L27.7696 1.40625ZM32.4122 1.72681L36.3146 13.2581L38.209 12.6169L34.3067 1.08569L32.4122 1.72681ZM38.2099 13.2555L42.0771 1.72421L40.1809 1.08829L36.3137 12.6195L38.2099 13.2555ZM41.129 2.40625H46.7364V0.40625H41.129V2.40625ZM45.8154 1.01677L38.9247 17.3117L40.7668 18.0906L47.6574 1.79573L45.8154 1.01677ZM38.8458 17.7012V27H40.8458V17.7012H38.8458ZM39.8458 26H34.6602V28H39.8458V26ZM35.6602 27V17.7012H33.6602V27H35.6602ZM35.5813 17.3117L28.6906 1.01677L26.8486 1.79573L33.7392 18.0906L35.5813 17.3117ZM27.7696 2.40625H33.3595V0.40625H27.7696V2.40625ZM61.8916 17.9824L61.1163 18.6141L61.1232 18.6226L61.1303 18.6309L61.8916 17.9824ZM60.749 17.0332L60.2082 17.8744L60.2172 17.8801L60.749 17.0332ZM58.8154 16.0488L59.2077 15.129L59.2024 15.1268L58.8154 16.0488ZM56.0556 14.7832L55.599 15.6729L55.6084 15.6776L56.0556 14.7832ZM51.9423 11.0918L51.0479 11.539L51.0518 11.5467L51.0558 11.5544L51.9423 11.0918ZM51.9072 5.27344L50.9964 4.86052L50.9919 4.8707L51.9072 5.27344ZM53.5947 3.02344L54.2445 3.78359L54.2515 3.77752L53.5947 3.02344ZM56.1435 1.56445L55.8172 0.619193L55.8137 0.620418L56.1435 1.56445ZM63.6845 2.07422L63.1902 2.94352L63.1939 2.94557L63.6845 2.07422ZM66.4795 4.86914L65.6049 5.35406L65.6086 5.36063L66.4795 4.86914ZM67.4814 8.94727V9.94727H68.4814V8.94727H67.4814ZM62.3486 8.94727H61.3486V9.94727H62.3486V8.94727ZM62.0322 7.03125L61.0896 7.3651L61.0938 7.37705L61.0983 7.3889L62.0322 7.03125ZM57.708 5.64258L58.2294 6.49588L58.2359 6.49186L57.708 5.64258ZM56.7588 6.71484L55.8507 6.29576L55.8459 6.30648L56.7588 6.71484ZM56.7588 9.36914L55.8961 9.87486L55.9065 9.8926L55.9176 9.9099L56.7588 9.36914ZM57.6201 10.2656L57.0242 11.0687L57.0327 11.075L57.0413 11.0811L57.6201 10.2656ZM58.9033 11.0215L58.456 11.916L58.4644 11.9201L58.9033 11.0215ZM60.5556 11.7422L60.9222 10.8118L60.9207 10.8112L60.5556 11.7422ZM63.6318 13.2539L63.1058 14.1044L63.114 14.1094L63.6318 13.2539ZM65.8642 15.082L65.1132 15.7424L65.119 15.7488L65.8642 15.082ZM67.1123 23.1504L66.1925 22.7579L66.1899 22.764L67.1123 23.1504ZM65.5127 25.4004L66.1747 26.1499L66.1816 26.1437L65.5127 25.4004ZM62.9638 26.8418L62.6409 25.8954L62.6375 25.8965L62.9638 26.8418ZM56.3017 26.8594L55.995 27.8112L56.0047 27.8142L56.3017 26.8594ZM53.5068 25.3301L52.8514 26.0854L52.8574 26.0905L52.8633 26.0956L53.5068 25.3301ZM51.6259 22.7109L50.7068 23.1049L50.7084 23.1085L51.6259 22.7109ZM50.9404 18.9316V17.9316H49.9404V18.9316H50.9404ZM56.0908 18.9316H57.0908V17.9316H56.0908V18.9316ZM56.3193 20.918L55.3555 21.1846L55.357 21.1899L56.3193 20.918ZM57.0224 22.2188L56.3026 22.9129L56.3089 22.9194L56.3153 22.9259L57.0224 22.2188ZM58.1826 22.9395L57.8447 23.8806L57.859 23.8858L57.8735 23.8905L58.1826 22.9395ZM61.3994 22.7812L60.8672 21.9345L60.8561 21.9417L61.3994 22.7812ZM63.542 20.2676C63.542 19.7519 63.4958 19.2628 63.3958 18.8058L61.442 19.2332C61.5061 19.5262 61.542 19.8692 61.542 20.2676H63.542ZM63.3958 18.8058C63.2758 18.2573 63.0198 17.7648 62.6528 17.334L61.1303 18.6309C61.3024 18.8329 61.3979 19.0317 61.442 19.2332L63.3958 18.8058ZM62.6668 17.3507C62.3164 16.9207 61.8387 16.5366 61.2808 16.1863L60.2172 17.8801C60.6671 18.1626 60.9511 18.4113 61.1163 18.6141L62.6668 17.3507ZM61.2897 16.192C60.7338 15.8346 60.0341 15.4814 59.2077 15.129L58.4231 16.9687C59.1904 17.2959 59.7798 17.599 60.2082 17.8744L61.2897 16.192ZM59.2024 15.1268C58.2729 14.7366 57.3731 14.3239 56.5028 13.8888L55.6084 15.6776C56.5194 16.1331 57.4595 16.5642 58.4284 16.9709L59.2024 15.1268ZM56.5122 13.8935C55.6827 13.4678 54.9428 12.9807 54.2888 12.434L53.006 13.9684C53.7818 14.617 54.6473 15.1845 55.5991 15.6729L56.5122 13.8935ZM54.2888 12.434C53.6727 11.9189 53.1886 11.3186 52.8289 10.6292L51.0558 11.5544C51.5398 12.4822 52.1924 13.2882 53.006 13.9684L54.2888 12.434ZM52.8368 10.6446C52.5087 9.98834 52.3271 9.18619 52.3271 8.20898H50.3271C50.3271 9.4349 50.5557 10.5546 51.0479 11.539L52.8368 10.6446ZM52.3271 8.20898C52.3271 7.25248 52.4981 6.41343 52.8225 5.67618L50.9919 4.8707C50.5428 5.89126 50.3271 7.00924 50.3271 8.20898H52.3271ZM52.818 5.68633C53.1565 4.93957 53.6304 4.30849 54.2445 3.78356L52.9449 2.26332C52.1059 2.98057 51.4548 3.84949 50.9964 4.86055L52.818 5.68633ZM54.2515 3.77752C54.8756 3.2339 55.6124 2.80932 56.4734 2.50849L55.8137 0.620418C54.7294 0.999275 53.7669 1.54735 52.9379 2.26936L54.2515 3.77752ZM56.4699 2.50971C57.334 2.21136 58.3173 2.05469 59.4306 2.05469V0.0546875C58.1299 0.0546875 56.9217 0.23786 55.8172 0.6192L56.4699 2.50971ZM59.4306 2.05469C60.9315 2.05469 62.1723 2.36466 63.1902 2.94351L64.1788 1.20493C62.8062 0.424401 61.211 0.0546875 59.4306 0.0546875V2.05469ZM63.1939 2.94557C64.2436 3.5367 65.0406 4.33628 65.6049 5.35405L67.354 4.38423C66.6058 3.03481 65.5395 1.97111 64.1752 1.20287L63.1939 2.94557ZM65.6086 5.36063C66.1814 6.37564 66.4814 7.56162 66.4814 8.94727H68.4814C68.4814 7.2626 68.1134 5.72983 67.3503 4.37765L65.6086 5.36063ZM67.4814 7.94727H62.3486V9.94727H67.4814V7.94727ZM63.3486 8.94727C63.3486 8.12585 63.2295 7.36162 62.966 6.6736L61.0983 7.3889C61.2567 7.80244 61.3486 8.31556 61.3486 8.94727H63.3486ZM62.9748 6.6974C62.7135 5.95969 62.2733 5.34439 61.6446 4.89771L60.4862 6.52807C60.7481 6.7142 60.9524 6.97781 61.0896 7.3651L62.9748 6.6974ZM61.6446 4.89771C60.9873 4.43067 60.1939 4.23828 59.3427 4.23828V6.23828C59.8978 6.23828 60.2529 6.3623 60.4862 6.52807L61.6446 4.89771ZM59.3427 4.23828C58.5524 4.23828 57.8114 4.4008 57.18 4.79329L58.2359 6.49186C58.4717 6.34529 58.8206 6.23828 59.3427 6.23828V4.23828ZM57.1865 4.7893C56.5924 5.15235 56.1431 5.66239 55.8508 6.29579L57.6667 7.1339C57.7963 6.85323 57.9798 6.64843 58.2294 6.49586L57.1865 4.7893ZM55.8459 6.30648C55.5811 6.89847 55.4599 7.54474 55.4599 8.22656H57.4599C57.4599 7.78338 57.538 7.42184 57.6716 7.12321L55.8459 6.30648ZM55.4599 8.22656C55.4599 8.81315 55.6005 9.37075 55.8961 9.87486L57.6214 8.86342C57.5185 8.68784 57.4599 8.48372 57.4599 8.22656H55.4599ZM55.9176 9.9099C56.2033 10.3544 56.5792 10.7386 57.0242 11.0687L58.2159 9.46253C57.9344 9.25362 57.7361 9.04016 57.5999 8.82838L55.9176 9.9099ZM57.0413 11.0811C57.4547 11.3745 57.9283 11.652 58.4561 11.9159L59.3505 10.1271C58.8939 9.89877 58.512 9.67236 58.1988 9.45012L57.0413 11.0811ZM58.4644 11.9201C58.9956 12.1795 59.5714 12.4303 60.1905 12.6732L60.9207 10.8112C60.3446 10.5853 59.8187 10.3557 59.3421 10.1229L58.4644 11.9201ZM60.1891 12.6726C61.304 13.1118 62.2744 13.5902 63.1058 14.1044L64.1578 12.4034C63.208 11.816 62.1276 11.2867 60.9222 10.8118L60.1891 12.6726ZM63.114 14.1094C63.9302 14.6034 64.5922 15.1497 65.1132 15.7424L66.6152 14.4217C65.941 13.6549 65.1146 12.9825 64.1496 12.3984L63.114 14.1094ZM65.119 15.7488C65.6311 16.3212 66.016 16.966 66.2772 17.6893L68.1583 17.01C67.8101 16.0458 67.2927 15.1788 66.6095 14.4152L65.119 15.7488ZM66.2772 17.6893C66.5355 18.4046 66.6748 19.2474 66.6748 20.2324H68.6748C68.6748 19.0612 68.5093 17.9821 68.1583 17.01L66.2772 17.6893ZM66.6748 20.2324C66.6748 21.1796 66.5087 22.0168 66.1925 22.758L68.032 23.5428C68.4658 22.5262 68.6748 21.418 68.6748 20.2324H66.6748ZM66.1899 22.764C65.8841 23.4941 65.4377 24.1225 64.8437 24.6571L66.1816 26.1437C66.9938 25.4127 67.6139 24.541 68.0346 23.5368L66.1899 22.764ZM64.8506 24.6509C64.2578 25.1746 63.5273 25.593 62.6409 25.8954L63.2867 27.7882C64.3926 27.4109 65.3613 26.8684 66.1747 26.1499L64.8506 24.6509ZM62.6375 25.8965C61.7743 26.1946 60.7853 26.3516 59.6591 26.3516V28.3516C60.9705 28.3516 62.1846 28.1687 63.2902 27.7871L62.6375 25.8965ZM59.6591 26.3516C58.5691 26.3516 57.5506 26.2007 56.5988 25.9045L56.0047 27.8142C57.1622 28.1743 58.382 28.3516 59.6591 28.3516V26.3516ZM56.6084 25.9076C55.6708 25.6055 54.8549 25.1569 54.1503 24.5646L52.8633 26.0956C53.7759 26.8626 54.8232 27.4336 55.995 27.8112L56.6084 25.9076ZM54.1622 24.5748C53.4882 23.99 52.9464 23.2431 52.5435 22.3133L50.7084 23.1085C51.2195 24.2881 51.9316 25.2873 52.8514 26.0854L54.1622 24.5748ZM52.5451 22.317C52.153 21.4023 51.9404 20.2824 51.9404 18.9316H49.9404C49.9404 20.4871 50.1848 21.8868 50.7068 23.1049L52.5451 22.317ZM50.9404 19.9316H56.0908V17.9316H50.9404V19.9316ZM55.0908 18.9316C55.0908 19.7657 55.1724 20.5225 55.3555 21.1846L57.2831 20.6514C57.1615 20.2119 57.0908 19.6445 57.0908 18.9316H55.0908ZM55.357 21.1899C55.544 21.8517 55.8485 22.442 56.3026 22.9129L57.7423 21.5246C57.5636 21.3393 57.3993 21.0624 57.2816 20.646L55.357 21.1899ZM56.3153 22.9259C56.7447 23.3552 57.2609 23.6711 57.8447 23.8806L58.5204 21.9983C58.1902 21.8797 57.933 21.7151 57.7295 21.5116L56.3153 22.9259ZM57.8735 23.8905C58.4607 24.0813 59.1011 24.168 59.7822 24.168V22.168C59.268 22.168 58.842 22.1023 58.4917 21.9884L57.8735 23.8905ZM59.7822 24.168C60.5753 24.168 61.3266 24.0194 61.9426 23.6208L60.8561 21.9417C60.6753 22.0587 60.3484 22.168 59.7822 22.168V24.168ZM61.9315 23.6279C62.5127 23.2626 62.9475 22.7552 63.205 22.1198L61.3515 21.3684C61.2575 21.6003 61.1064 21.7843 60.8672 21.9346L61.9315 23.6279ZM63.205 22.1198C63.437 21.5477 63.542 20.9247 63.542 20.2676H61.542C61.542 20.712 61.4712 21.0734 61.3515 21.3684L63.205 22.1198ZM74.8705 1.40625H75.8705V0.40625H74.8705V1.40625ZM74.8705 27V28H75.8705V27H74.8705ZM69.7553 27H68.7553V28H69.7553V27ZM69.7553 1.40625V0.40625H68.7553V1.40625H69.7553ZM81.2338 1.40625H82.2338V0.40625H81.2338V1.40625ZM81.2338 5.67773V6.67773H82.2338V5.67773H81.2338ZM63.5151 5.67773H62.5151V6.67773H63.5151V5.67773ZM63.5151 1.40625V0.40625H62.5151V1.40625H63.5151ZM73.8705 1.40625V27H75.8705V1.40625H73.8705ZM74.8705 26H69.7553V28H74.8705V26ZM70.7553 27V1.40625H68.7553V27H70.7553ZM69.7553 2.40625H74.8705V0.40625H69.7553V2.40625ZM80.2338 1.40625V5.67773H82.2338V1.40625H80.2338ZM81.2338 4.67773H63.5151V6.67773H81.2338V4.67773ZM64.5151 5.67773V1.40625H62.5151V5.67773H64.5151ZM63.5151 2.40625H81.2338V0.40625H63.5151V2.40625ZM94.5644 21.2344L93.6141 20.9231L93.6124 20.9281L94.5644 21.2344ZM92.7011 24.627L91.9521 23.9644L91.9515 23.965L92.7011 24.627ZM89.8007 26.666L89.4277 25.7382L89.4243 25.7395L89.8007 26.666ZM82.2948 26.666L81.9185 27.5925L81.9218 27.5938L82.2948 26.666ZM79.3769 24.627L78.6278 25.2896L78.6369 25.2996L79.3769 24.627ZM77.496 21.2344L76.5457 21.5457L76.5465 21.5481L77.496 21.2344ZM77.4784 7.36523L78.4326 7.66443L78.4333 7.66214L77.4784 7.36523ZM79.3593 3.88477L80.1078 4.54797L80.1119 4.54327L79.3593 3.88477ZM82.2773 1.77539L82.6619 2.6985L82.67 2.69503L82.2773 1.77539ZM89.7655 1.77539L89.3728 2.69507L89.3809 2.69847L89.7655 1.77539ZM92.6835 3.88477L91.9309 4.54328L91.9351 4.54795L92.6835 3.88477ZM94.5644 7.36523L93.6094 7.66215L93.6125 7.67177L94.5644 7.36523ZM89.8534 9.07031L88.8734 9.26898L88.8739 9.27159L89.8534 9.07031ZM84.246 5.73047L83.7988 4.836L83.7905 4.84022L84.246 5.73047ZM82.9628 6.94336L82.1199 6.40532L82.1158 6.41176L82.1118 6.41825L82.9628 6.94336ZM82.1894 9.07031L81.2093 8.87164L81.2073 8.88196L82.1894 9.07031ZM84.2812 22.7109L83.8257 23.6012L83.838 23.6075L83.8504 23.6134L84.2812 22.7109ZM87.7968 22.7109L88.2357 23.6095L88.244 23.6054L87.7968 22.7109ZM94.2323 12.2168V16.4883H96.2323V12.2168H94.2323ZM94.2323 16.4883C94.2323 18.2136 94.0192 19.6865 93.6141 20.9231L95.5147 21.5457C96.0002 20.0635 96.2323 18.3723 96.2323 16.4883H94.2323ZM93.6124 20.9281C93.2144 22.1651 92.6557 23.169 91.9521 23.9644L93.4501 25.2895C94.3637 24.2567 95.0471 22.9989 95.5163 21.5407L93.6124 20.9281ZM91.9515 23.965C91.2596 24.7485 90.4225 25.3382 89.4277 25.7382L90.1737 27.5938C91.4523 27.0798 92.5488 26.3101 93.4506 25.2889L91.9515 23.965ZM89.4243 25.7395C88.4333 26.1421 87.3152 26.3516 86.0566 26.3516V28.3516C87.5401 28.3516 88.9181 28.104 90.1771 27.5925L89.4243 25.7395ZM86.0566 26.3516C84.7981 26.3516 83.6727 26.1422 82.6679 25.7382L81.9218 27.5938C83.1904 28.1039 84.5728 28.3516 86.0566 28.3516V26.3516ZM82.6712 25.7395C81.6855 25.3391 80.8369 24.7464 80.1168 23.9543L78.6369 25.2996C79.5575 26.3122 80.6542 27.0789 81.9185 27.5925L82.6712 25.7395ZM80.1259 23.9644C79.4205 23.167 78.8552 22.1604 78.4455 20.9206L76.5465 21.5481C77.0275 23.0037 77.7161 24.2588 78.6279 25.2895L80.1259 23.9644ZM78.4463 20.9231C78.0412 19.6865 77.828 18.2136 77.828 16.4883H75.828C75.828 18.3723 76.0602 20.0635 76.5457 21.5457L78.4463 20.9231ZM77.828 16.4883V12.2168H75.828V16.4883H77.828ZM77.828 12.2168C77.828 10.44 78.0365 8.92786 78.4326 7.66443L76.5242 7.06604C76.0532 8.56823 75.828 10.2905 75.828 12.2168H77.828ZM78.4333 7.66214C78.8324 6.3788 79.3969 5.35022 80.1078 4.54795L78.6108 3.22158C77.6811 4.27087 76.9917 5.56261 76.5235 7.06833L78.4333 7.66214ZM80.1119 4.54327C80.8337 3.71832 81.6814 3.10702 82.6619 2.69847L81.8927 0.852314C80.6232 1.38127 79.5255 2.17621 78.6067 3.22626L80.1119 4.54327ZM82.67 2.69503C83.6567 2.27364 84.769 2.05469 86.0214 2.05469V0.0546875C84.5316 0.0546875 83.1478 0.316206 81.8845 0.855751L82.67 2.69503ZM86.0214 2.05469C87.2738 2.05469 88.3861 2.27364 89.3728 2.69503L90.1583 0.855751C88.895 0.316206 87.5112 0.0546875 86.0214 0.0546875V2.05469ZM89.3809 2.69847C90.3614 3.10702 91.2091 3.71832 91.9309 4.54327L93.4361 3.22626C92.5173 2.17621 91.4196 1.38127 90.1502 0.852314L89.3809 2.69847ZM91.9351 4.54795C92.6459 5.35022 93.2104 6.3788 93.6095 7.66214L95.5193 7.06833C95.0511 5.56261 94.3617 4.27087 93.432 3.22158L91.9351 4.54795ZM93.6125 7.67177C94.0186 8.93265 94.2323 10.4422 94.2323 12.2168H96.2323C96.2323 10.2883 96.0008 8.56344 95.5162 7.0587L93.6125 7.67177ZM91.1171 16.4883V12.1816H89.1171V16.4883H91.1171ZM91.1171 12.1816C91.1171 10.9196 91.0265 9.81095 90.833 8.86904L88.8739 9.27159C89.0319 10.0406 89.1171 11.0061 89.1171 12.1816H91.1171ZM90.8335 8.87165C90.6414 7.92387 90.342 7.08942 89.9053 6.40532L88.2195 7.48139C88.486 7.89886 88.7139 8.48238 88.8734 9.26897L90.8335 8.87165ZM89.9053 6.40532C89.4732 5.72826 88.9198 5.19073 88.2347 4.84022L87.3237 6.62072C87.6465 6.78583 87.9485 7.0569 88.2195 7.48139L89.9053 6.40532ZM88.2347 4.84022C87.5665 4.49835 86.8193 4.34375 86.0214 4.34375V6.34375C86.5594 6.34375 86.9841 6.44696 87.3237 6.62072L88.2347 4.84022ZM86.0214 4.34375C85.2228 4.34375 84.4738 4.49856 83.7988 4.83604L84.6932 6.6249C85.0495 6.44675 85.484 6.34375 86.0214 6.34375V4.34375ZM83.7905 4.84022C83.1054 5.19073 82.5521 5.72826 82.1199 6.40532L83.8057 7.48139C84.0767 7.0569 84.3788 6.78583 84.7015 6.62072L83.7905 4.84022ZM82.1118 6.41825C81.6919 7.09878 81.4005 7.92843 81.2093 8.87165L83.1694 9.26897C83.3298 8.47782 83.5541 7.8895 83.8139 7.46847L82.1118 6.41825ZM81.2073 8.88196C81.0277 9.81857 80.9433 10.9226 80.9433 12.1816H82.9433C82.9433 11.0032 83.023 10.033 83.1715 9.25866L81.2073 8.88196ZM80.9433 12.1816V16.4883H82.9433V12.1816H80.9433ZM80.9433 16.4883C80.9433 17.7056 81.0342 18.7808 81.2286 19.7008L83.1854 19.2874C83.0282 18.5434 82.9433 17.6147 82.9433 16.4883H80.9433ZM81.2286 19.7008C81.4221 20.6171 81.7243 21.4255 82.1659 22.0879L83.83 20.9785C83.5685 20.5862 83.3433 20.0352 83.1854 19.2874L81.2286 19.7008ZM82.1659 22.0879C82.6007 22.7401 83.1521 23.2566 83.8257 23.6012L84.7366 21.8207C84.4024 21.6497 84.0984 21.381 83.83 20.9785L82.1659 22.0879ZM83.8504 23.6134C84.5215 23.9337 85.2646 24.0801 86.0566 24.0801V22.0801C85.5126 22.0801 85.0721 21.9804 84.7119 21.8085L83.8504 23.6134ZM86.0566 24.0801C86.8391 24.0801 87.5736 23.9328 88.2356 23.6095L87.358 21.8124C87.0121 21.9813 86.5865 22.0801 86.0566 22.0801V24.0801ZM88.244 23.6054C88.934 23.2604 89.4925 22.7392 89.9206 22.0749L88.2394 20.9915C87.9879 21.3819 87.6908 21.6459 87.3496 21.8165L88.244 23.6054ZM89.9206 22.0749C90.3452 21.4159 90.6393 20.6124 90.8318 19.7008L88.875 19.2874C88.716 20.04 88.4945 20.5958 88.2394 20.9915L89.9206 22.0749ZM90.8318 19.7008C91.0262 18.7808 91.1171 17.7056 91.1171 16.4883H89.1171C89.1171 17.6147 89.0322 18.5434 88.875 19.2874L90.8318 19.7008ZM92.5141 1.40625V0.40625H91.5141V1.40625H92.5141ZM108.282 12.6914L109.215 13.0511L109.216 13.0474L108.282 12.6914ZM106.682 15.1348L107.364 15.8663L107.37 15.8601L106.682 15.1348ZM104.204 16.6816L103.83 15.7539L103.758 15.7828L103.692 15.8224L104.204 16.6816ZM102.639 17.6133V18.6133H102.914L103.151 18.4725L102.639 17.6133ZM95.977 17.6133L94.977 17.6174L94.9811 18.6133H95.977V17.6133ZM95.9594 13.3418V12.3418H94.9553L94.9594 13.3459L95.9594 13.3418ZM102.323 12.8848L102.877 13.7168L102.882 13.7136L102.323 12.8848ZM103.36 11.5664L102.434 11.1885L102.43 11.1984L103.36 11.5664ZM103.395 7.48828L102.448 7.81018L102.452 7.82169L102.456 7.8331L103.395 7.48828ZM102.428 6.15234L101.839 6.96013L101.851 6.96908L101.863 6.97765L102.428 6.15234ZM97.6645 5.67773V4.67773H96.6645V5.67773H97.6645ZM97.6645 27V28H98.6645V27H97.6645ZM92.5141 27H91.5141V28H92.5141V27ZM104.133 27L103.208 27.3805L103.463 28H104.133V27ZM99.4398 15.5918L99.4366 14.5918L97.9491 14.5966L98.5151 15.9723L99.4398 15.5918ZM104.836 15.5742L105.755 15.1798L105.494 14.5721L104.833 14.5742L104.836 15.5742ZM109.635 26.7539H110.635V26.5484L110.554 26.3595L109.635 26.7539ZM109.635 27V28H110.635V27H109.635ZM92.5141 2.40625H100.723V0.40625H92.5141V2.40625ZM100.723 2.40625C102.323 2.40625 103.625 2.68049 104.663 3.18476L105.537 1.38555C104.161 0.717944 102.545 0.40625 100.723 0.40625V2.40625ZM104.663 3.18476C105.69 3.68338 106.463 4.40919 107.005 5.37613L108.749 4.3973C108.003 3.06738 106.924 2.05881 105.537 1.38555L104.663 3.18476ZM107.005 5.37613C107.546 6.33875 107.844 7.57738 107.844 9.14062H109.844C109.844 7.32887 109.498 5.73156 108.749 4.3973L107.005 5.37613ZM107.844 9.14062C107.844 10.4378 107.668 11.4941 107.347 12.3354L109.216 13.0474C109.646 11.9199 109.844 10.6091 109.844 9.14062H107.844ZM107.349 12.3317C107.022 13.179 106.568 13.8647 105.994 14.4095L107.37 15.8601C108.179 15.0924 108.791 14.1492 109.215 13.0511L107.349 12.3317ZM106 14.4033C105.407 14.9563 104.688 15.4087 103.83 15.7539L104.577 17.6093C105.641 17.1811 106.574 16.6023 107.364 15.8662L106 14.4033ZM103.692 15.8224L102.127 16.7541L103.151 18.4725L104.715 17.5408L103.692 15.8224ZM102.639 16.6133H95.977V18.6133H102.639V16.6133ZM96.977 17.6092L96.9594 13.3377L94.9594 13.3459L94.977 17.6174L96.977 17.6092ZM95.9594 14.3418H100.582V12.3418H95.9594V14.3418ZM100.582 14.3418C101.428 14.3418 102.216 14.158 102.877 13.7168L101.768 12.0527C101.516 12.2209 101.143 12.3418 100.582 12.3418V14.3418ZM102.882 13.7136C103.53 13.2764 103.998 12.6706 104.29 11.9345L102.43 11.1984C102.276 11.5872 102.053 11.8603 101.763 12.0559L102.882 13.7136ZM104.286 11.9443C104.579 11.2261 104.711 10.4251 104.711 9.5625H102.711C102.711 10.2233 102.61 10.7582 102.434 11.1885L104.286 11.9443ZM104.711 9.5625C104.711 8.67194 104.596 7.85728 104.334 7.14346L102.456 7.8331C102.616 8.26772 102.711 8.83587 102.711 9.5625H104.711ZM104.342 7.16638C104.084 6.40712 103.642 5.77128 102.993 5.32704L101.863 6.97765C102.105 7.14278 102.308 7.39757 102.448 7.81018L104.342 7.16638ZM103.018 5.34455C102.367 4.86953 101.573 4.67773 100.723 4.67773V6.67773C101.28 6.67773 101.622 6.80234 101.839 6.96013L103.018 5.34455ZM100.723 4.67773H97.6645V6.67773H100.723V4.67773ZM96.6645 5.67773V27H98.6645V5.67773H96.6645ZM97.6645 26H92.5141V28H97.6645V26ZM93.5141 27V1.40625H91.5141V27H93.5141ZM105.058 26.6195L100.365 15.2113L98.5151 15.9723L103.208 27.3805L105.058 26.6195ZM99.4431 16.5918L104.84 16.5742L104.833 14.5742L99.4366 14.5918L99.4431 16.5918ZM103.917 15.9687L108.716 27.1483L110.554 26.3595L105.755 15.1798L103.917 15.9687ZM108.635 26.7539V27H110.635V26.7539H108.635ZM109.635 26H104.133V28H109.635V26ZM120.628 22.7461H121.628V21.7461H120.628V22.7461ZM120.628 27V28H121.628V27H120.628ZM109.501 27H108.501V28H109.501V27ZM109.501 22.7461V21.7461H108.501V22.7461H109.501ZM111.1 1.40625H112.1V0.40625H111.1V1.40625ZM111.1 27V28H112.1V27H111.1ZM105.95 27H104.95V28H105.95V27ZM105.95 1.40625V0.40625H104.95V1.40625H105.95ZM119.134 11.7773H120.134V10.7773H119.134V11.7773ZM119.134 15.9082V16.9082H120.134V15.9082H119.134ZM109.501 15.9082H108.501V16.9082H109.501V15.9082ZM109.501 11.7773V10.7773H108.501V11.7773H109.501ZM120.593 1.40625H121.593V0.40625H120.593V1.40625ZM120.593 5.67773V6.67773H121.593V5.67773H120.593ZM109.501 5.67773H108.501V6.67773H109.501V5.67773ZM109.501 1.40625V0.40625H108.501V1.40625H109.501ZM119.628 22.7461V27H121.628V22.7461H119.628ZM120.628 26H109.501V28H120.628V26ZM110.501 27V22.7461H108.501V27H110.501ZM109.501 23.7461H120.628V21.7461H109.501V23.7461ZM110.1 1.40625V27H112.1V1.40625H110.1ZM111.1 26H105.95V28H111.1V26ZM106.95 27V1.40625H104.95V27H106.95ZM105.95 2.40625H111.1V0.40625H105.95V2.40625ZM118.134 11.7773V15.9082H120.134V11.7773H118.134ZM119.134 14.9082H109.501V16.9082H119.134V14.9082ZM110.501 15.9082V11.7773H108.501V15.9082H110.501ZM109.501 12.7773H119.134V10.7773H109.501V12.7773ZM119.593 1.40625V5.67773H121.593V1.40625H119.593ZM120.593 4.67773H109.501V6.67773H120.593V4.67773ZM110.501 5.67773V1.40625H108.501V5.67773H110.501ZM109.501 2.40625H120.593V0.40625H109.501V2.40625Z" fill="#151515" mask="url(#path-1-outside-1_0_1)"/>
</g>
<defs>
<clipPath id="clip0_0_1">
<rect width="3955" height="545" fill="white" transform="translate(-9 -12)"/>
</clipPath>
</defs>
</svg>
